<svg width="142" height="86" viewBox="0 0 142 86" fill="none" xmlns="http://www.w3.org/2000/svg">
<path d="M40.4766 52H39.2656C38.5794 52 38.0143 51.8789 37.5703 51.6367C36.8438 51.2331 35.9961 49.8001 35.0273 47.3379L28.4883 30.3242L20.4961 52H19.2852C18.599 52 18.0339 51.8789 17.5898 51.6367C16.8633 51.2331 16.0156 49.8001 15.0469 47.3379L3.42188 17.3066H0.394531V15.6719H16.8027V17.3066H11.959L21.4648 43.7656L27.3984 27.5996L22.7969 15.6719H36.8438V17.3066L32 17.2461L41.3848 43.2207L49.9219 17.3066H45.0781V15.6719H55.0684V17.3066H52.041L40.4766 52ZM81.8906 52H61.9102V50.3652H67.6621V17.3066H66.6328C65.2604 17.3066 64.0898 17.569 63.1211 18.0938C61.7083 18.901 60.5579 20.5964 59.6699 23.1797L57.793 28.6289H55.9766L56.2188 15.6719H87.582L87.8242 28.6289H86.0078L84.1309 23.1797C83.8483 22.4128 83.5859 21.7467 83.3438 21.1816C82.1328 18.5983 80.0742 17.3066 77.168 17.3066H76.1387V50.3652H80.2559C81.1035 50.446 81.6484 50.9909 81.8906 52ZM112.164 35.2891H129.602V36.9238H125.666V52L118.34 50.7285C115.676 51.9395 112.729 52.5449 109.5 52.5449C105.423 52.5449 101.811 51.556 98.6621 49.5781C93.4551 46.2279 90.8516 40.9401 90.8516 33.7148C90.8516 28.1042 92.5065 23.6035 95.8164 20.2129C99.2878 16.7819 103.788 15.0664 109.318 15.0664C112.386 15.0664 115.312 15.6517 118.098 16.8223L123.789 15.6719L124.031 28.5078H122.154C122.154 28.4674 122.154 28.4271 122.154 28.3867C120.62 20.7578 116.967 16.9434 111.195 16.9434C110.711 16.9434 110.227 16.9635 109.742 17.0039C103.405 17.6901 100.236 23.3411 100.236 33.957C100.236 37.5091 100.559 40.4961 101.205 42.918C102.618 48.0846 105.786 50.668 110.711 50.668C113.254 50.668 115.454 49.9414 117.311 48.4883V36.9238H112.164V35.2891Z" fill="black"/>
<path d="M18.4733 59.381L16.2633 68H14.1383L12.7103 61.523L11.1973 68H9.07232L6.86232 59.381H8.86832L9.70132 62.798L10.2793 65.909L11.7413 59.381H13.7133L15.2263 65.977L15.7703 62.815L16.5863 59.381H18.4733ZM27.8998 61.03C27.6165 61.03 27.2935 61.098 26.9308 61.234C26.5682 61.37 26.1375 61.6363 25.6388 62.033V68H23.6838V55.42H25.6388V60.452C26.1602 60.01 26.6475 59.6927 27.1008 59.5C27.5542 59.3073 28.0188 59.211 28.4948 59.211C29.3222 59.211 29.9512 59.4773 30.3818 60.01C30.8125 60.5313 31.0278 61.268 31.0278 62.22V68H29.0728V62.458C29.0728 61.506 28.6818 61.03 27.8998 61.03ZM43.5599 67.507C42.9705 67.745 42.4152 67.915 41.8939 68.017C41.3725 68.119 40.8795 68.17 40.4149 68.17C39.1342 68.17 38.1652 67.8073 37.5079 67.082C36.8505 66.3567 36.5219 65.3933 36.5219 64.192V63.172C36.5219 62.3673 36.6692 61.6703 36.9639 61.081C37.2585 60.4917 37.6779 60.0327 38.2219 59.704C38.7659 59.3753 39.4062 59.211 40.1429 59.211C40.7435 59.211 41.3045 59.3357 41.8259 59.585C42.3585 59.823 42.7892 60.2027 43.1179 60.724C43.4579 61.234 43.6279 61.8913 43.6279 62.696C43.6279 62.934 43.6109 63.189 43.5769 63.461C43.5429 63.7217 43.4862 63.9993 43.4069 64.294H38.4089C38.4315 64.9967 38.6072 65.5237 38.9359 65.875C39.2645 66.2263 39.7915 66.402 40.5169 66.402C40.9022 66.402 41.2989 66.3567 41.7069 66.266C42.1262 66.1753 42.5569 66.0393 42.9989 65.858L43.5599 67.507ZM40.1429 60.86C39.6215 60.86 39.2135 61.03 38.9189 61.37C38.6355 61.6987 38.4712 62.1747 38.4259 62.798H41.6899C41.7012 62.7413 41.7069 62.6903 41.7069 62.645C41.7069 62.5883 41.7069 62.5373 41.7069 62.492C41.7069 61.948 41.5539 61.54 41.2479 61.268C40.9419 60.996 40.5735 60.86 40.1429 60.86ZM54.1454 61.166C53.6128 61.166 53.1028 61.251 52.6154 61.421C52.1394 61.5797 51.6804 61.8403 51.2384 62.203V68H49.2834V59.381H51.1364V60.707C51.7144 60.163 52.2301 59.7777 52.6834 59.551C53.1368 59.3243 53.6241 59.211 54.1454 59.211V61.166ZM65.806 67.507C65.2166 67.745 64.6613 67.915 64.14 68.017C63.6186 68.119 63.1256 68.17 62.661 68.17C61.3803 68.17 60.4113 67.8073 59.754 67.082C59.0966 66.3567 58.768 65.3933 58.768 64.192V63.172C58.768 62.3673 58.9153 61.6703 59.21 61.081C59.5046 60.4917 59.924 60.0327 60.468 59.704C61.012 59.3753 61.6523 59.211 62.389 59.211C62.9896 59.211 63.5506 59.3357 64.072 59.585C64.6046 59.823 65.0353 60.2027 65.364 60.724C65.704 61.234 65.874 61.8913 65.874 62.696C65.874 62.934 65.857 63.189 65.823 63.461C65.789 63.7217 65.7323 63.9993 65.653 64.294H60.655C60.6776 64.9967 60.8533 65.5237 61.182 65.875C61.5106 66.2263 62.0376 66.402 62.763 66.402C63.1483 66.402 63.545 66.3567 63.953 66.266C64.3723 66.1753 64.803 66.0393 65.245 65.858L65.806 67.507ZM62.389 60.86C61.8676 60.86 61.4596 61.03 61.165 61.37C60.8816 61.6987 60.7173 62.1747 60.672 62.798H63.936C63.9473 62.7413 63.953 62.6903 63.953 62.645C63.953 62.5883 63.953 62.5373 63.953 62.492C63.953 61.948 63.8 61.54 63.494 61.268C63.188 60.996 62.8196 60.86 62.389 60.86ZM80.1178 67.711C79.8232 67.847 79.4832 67.9547 79.0978 68.034C78.7125 68.1247 78.3215 68.17 77.9248 68.17C77.2675 68.17 76.7405 68.034 76.3438 67.762C75.9472 67.49 75.6582 67.1103 75.4768 66.623C75.3068 66.1357 75.2218 65.5803 75.2218 64.957V61.081H73.8278V59.381H75.2218V57.137H77.1768V59.381H79.8628V61.081H77.1768V64.957C77.1768 65.4783 77.2732 65.841 77.4658 66.045C77.6698 66.2377 77.9588 66.334 78.3328 66.334C78.5142 66.334 78.7068 66.317 78.9108 66.283C79.1262 66.2377 79.3642 66.164 79.6248 66.062L80.1178 67.711ZM92.148 63.172V64.192C92.148 65.3933 91.8193 66.3567 91.162 67.082C90.5047 67.8073 89.5753 68.17 88.374 68.17C87.1727 68.17 86.2433 67.8073 85.586 67.082C84.9287 66.3567 84.6 65.3933 84.6 64.192V63.172C84.6 61.9707 84.923 61.013 85.569 60.299C86.2263 59.5737 87.1613 59.211 88.374 59.211C89.5867 59.211 90.516 59.5737 91.162 60.299C91.8193 61.013 92.148 61.9707 92.148 63.172ZM90.142 63.172C90.142 62.4807 89.989 61.9423 89.683 61.557C89.377 61.1603 88.9407 60.962 88.374 60.962C87.8073 60.962 87.371 61.1603 87.065 61.557C86.759 61.9423 86.606 62.4807 86.606 63.172V64.192C86.606 64.8833 86.759 65.4273 87.065 65.824C87.371 66.2207 87.8073 66.419 88.374 66.419C88.9407 66.419 89.377 66.2207 89.683 65.824C89.989 65.4273 90.142 64.8833 90.142 64.192V63.172ZM108.304 68.867C108.304 69.785 107.941 70.499 107.216 71.009C106.502 71.5303 105.504 71.791 104.224 71.791C103.623 71.791 102.988 71.723 102.32 71.587C101.651 71.451 101.033 71.2243 100.467 70.907L101.028 69.36C101.572 69.632 102.11 69.8247 102.643 69.938C103.175 70.0627 103.697 70.125 104.207 70.125C104.921 70.125 105.465 70.0287 105.839 69.836C106.213 69.6433 106.4 69.3883 106.4 69.071C106.4 68.5837 106.111 68.34 105.533 68.34H103.493C102.937 68.34 102.49 68.2493 102.15 68.068C101.81 67.8867 101.56 67.6543 101.402 67.371C101.243 67.0763 101.164 66.7703 101.164 66.453C101.164 66.1243 101.232 65.8183 101.368 65.535C101.515 65.2403 101.713 64.9683 101.963 64.719C101.555 64.4697 101.226 64.1353 100.977 63.716C100.739 63.2967 100.62 62.7923 100.62 62.203C100.62 61.5343 100.761 60.979 101.045 60.537C101.328 60.095 101.713 59.7663 102.201 59.551C102.699 59.3243 103.249 59.211 103.85 59.211H104.139C104.365 59.211 104.586 59.228 104.802 59.262C105.017 59.2847 105.221 59.3243 105.414 59.381H108.491V61.047L106.791 60.775C106.961 60.9563 107.091 61.183 107.182 61.455C107.284 61.7157 107.335 62.0387 107.335 62.424C107.335 63.002 107.187 63.5007 106.893 63.92C106.609 64.328 106.224 64.6453 105.737 64.872C105.261 65.0873 104.728 65.195 104.139 65.195H103.85C103.623 65.195 103.408 65.178 103.204 65.144C103.079 65.28 102.988 65.4217 102.932 65.569C102.875 65.705 102.847 65.8353 102.847 65.96C102.847 66.3567 103.102 66.555 103.612 66.555H105.686C106.468 66.555 107.097 66.759 107.573 67.167C108.06 67.5637 108.304 68.1303 108.304 68.867ZM104.139 63.597C104.49 63.597 104.796 63.478 105.057 63.24C105.329 63.002 105.465 62.6563 105.465 62.203C105.465 61.7497 105.329 61.404 105.057 61.166C104.796 60.928 104.49 60.809 104.139 60.809H103.85C103.487 60.809 103.17 60.928 102.898 61.166C102.637 61.404 102.507 61.7497 102.507 62.203C102.507 62.6563 102.637 63.002 102.898 63.24C103.17 63.478 103.487 63.597 103.85 63.597H104.139ZM120.636 63.172V64.192C120.636 65.3933 120.308 66.3567 119.65 67.082C118.993 67.8073 118.064 68.17 116.862 68.17C115.661 68.17 114.732 67.8073 114.074 67.082C113.417 66.3567 113.088 65.3933 113.088 64.192V63.172C113.088 61.9707 113.411 61.013 114.057 60.299C114.715 59.5737 115.65 59.211 116.862 59.211C118.075 59.211 119.004 59.5737 119.65 60.299C120.308 61.013 120.636 61.9707 120.636 63.172ZM118.63 63.172C118.63 62.4807 118.477 61.9423 118.171 61.557C117.865 61.1603 117.429 60.962 116.862 60.962C116.296 60.962 115.859 61.1603 115.553 61.557C115.247 61.9423 115.094 62.4807 115.094 63.172V64.192C115.094 64.8833 115.247 65.4273 115.553 65.824C115.859 66.2207 116.296 66.419 116.862 66.419C117.429 66.419 117.865 66.2207 118.171 65.824C118.477 65.4273 118.63 64.8833 118.63 64.192V63.172Z" fill="black"/>
</svg>
